# xmcd CD database file generated by Grip 3.0.7
# 
# Track frame offsets:
#       150
#       18636
#       30360
#       46556
#       62675
#       79319
#       93654
#       108962
#       123988
#       137744
# 
# Disc length: 2022 seconds
# 
# Revision: 3
# Processed by: cddbd v1.5.1PL0 Copyright (c) Steve Scherf et al.
# Submitted via: Grip 3.0.7
# 
DISCID=7907e40a
DTITLE=Loretta Lynn - Still Country
DYEAR=2000
DGENRE=Country
TTITLE0=On My Own Again
TTITLE1=God's Country
TTITLE2=Table For Two
TTITLE3=Working Girl
TTITLE4=I Can't Hear The Music
TTITLE5=Country In My Genes
TTITLE6=Hold Her
TTITLE7=Don't Open That Door
TTITLE8=Somewhere Someone's Falling In Love
TTITLE9=The Blues Ain't Workin' On Me
EXTD=
EXTT0=
EXTT1=
EXTT2=
EXTT3=
EXTT4=
EXTT5=
EXTT6=
EXTT7=
EXTT8=
EXTT9=
PLAYORDER=
